<svg id="svg" version="1.1" xmlns="http://www.w3.org/2000/svg" xmlns:xlink="http://www.w3.org/1999/xlink" width="400" height="400" viewBox="0, 0, 400,400"><g id="svgg"><path id="path0" d="M193.538 41.796 C 193.397 41.936,191.329 42.221,188.941 42.428 C 186.553 42.635,183.700 42.970,182.600 43.171 C 177.461 44.110,176.075 44.385,174.400 44.795 C 173.410 45.038,171.970 45.388,171.200 45.574 C 164.897 47.092,153.314 52.086,148.000 55.576 C 146.790 56.371,145.305 57.272,144.700 57.578 C 144.095 57.885,143.600 58.285,143.600 58.468 C 143.600 58.650,143.330 58.800,143.000 58.800 C 142.670 58.800,142.400 58.938,142.400 59.107 C 142.400 59.276,141.967 59.681,141.439 60.007 C 138.024 62.112,128.743 71.250,126.008 75.200 C 125.475 75.970,124.928 76.690,124.793 76.800 C 121.806 79.231,114.370 95.401,112.467 103.600 C 112.237 104.590,111.938 105.850,111.802 106.400 C 110.005 113.660,109.316 128.012,110.314 137.400 C 111.021 144.059,112.733 152.510,114.202 156.600 C 117.225 165.018,122.339 175.739,124.029 177.200 C 124.156 177.310,125.043 178.570,126.000 180.000 C 126.957 181.430,127.850 182.690,127.984 182.800 C 128.119 182.910,129.330 184.359,130.675 186.020 C 136.830 193.620,148.201 202.634,157.400 207.205 C 158.940 207.970,160.260 208.732,160.333 208.898 C 160.407 209.064,160.705 209.200,160.996 209.200 C 161.286 209.200,162.306 209.586,163.262 210.057 C 164.218 210.528,165.360 211.050,165.800 211.216 C 166.240 211.382,167.230 211.793,168.000 212.129 C 170.029 213.014,180.254 216.362,190.800 219.595 C 193.110 220.303,195.360 221.022,195.800 221.194 C 196.240 221.365,197.950 221.905,199.600 222.393 C 201.250 222.882,202.913 223.444,203.295 223.641 C 203.677 223.838,204.264 224.000,204.600 224.000 C 204.936 224.000,205.523 224.162,205.905 224.361 C 206.287 224.560,207.410 224.937,208.400 225.200 C 209.390 225.463,210.513 225.840,210.895 226.039 C 211.277 226.238,211.864 226.400,212.200 226.400 C 212.536 226.400,213.123 226.562,213.505 226.761 C 213.887 226.960,215.010 227.340,216.000 227.607 C 216.990 227.873,218.160 228.239,218.600 228.419 C 219.040 228.600,220.120 228.978,221.000 229.261 C 226.652 231.075,236.140 237.282,238.998 241.035 C 239.653 241.896,240.687 243.122,241.295 243.759 C 241.903 244.397,242.400 245.162,242.400 245.459 C 242.400 245.757,242.549 246.000,242.732 246.000 C 242.914 246.000,243.787 247.395,244.670 249.100 C 254.124 267.341,251.476 290.163,238.532 301.992 C 234.387 305.781,228.345 309.218,223.000 310.829 C 222.120 311.095,220.950 311.453,220.400 311.626 C 219.176 312.012,216.223 312.635,212.929 313.203 C 209.610 313.775,193.404 313.743,190.278 313.159 C 188.915 312.904,186.540 312.431,185.000 312.109 C 183.460 311.787,181.613 311.430,180.896 311.317 C 180.179 311.204,179.494 310.951,179.373 310.756 C 179.252 310.560,178.801 310.400,178.371 310.400 C 177.941 310.400,177.232 310.220,176.795 310.000 C 176.358 309.780,175.642 309.420,175.205 309.200 C 174.768 308.980,174.138 308.800,173.805 308.800 C 173.472 308.800,173.200 308.620,173.200 308.400 C 173.200 308.180,172.966 308.000,172.680 308.000 C 171.944 308.000,170.007 307.059,170.003 306.700 C 170.001 306.535,169.810 306.400,169.578 306.400 C 167.541 306.400,156.037 295.663,156.007 293.733 C 156.003 293.477,155.856 293.207,155.680 293.133 C 155.357 292.998,153.303 288.807,152.480 286.600 C 151.045 282.756,150.000 275.320,150.000 268.958 L 150.000 265.600 125.756 265.600 L 101.512 265.600 101.747 272.900 C 102.010 281.098,102.597 286.273,103.957 292.400 C 104.177 293.390,104.470 294.740,104.609 295.400 C 104.747 296.060,105.006 296.960,105.185 297.400 C 105.363 297.840,105.730 299.010,106.000 300.000 C 106.270 300.990,106.651 302.205,106.846 302.700 C 107.041 303.195,107.356 304.005,107.546 304.500 C 109.694 310.079,112.752 315.862,116.375 321.200 C 117.346 322.630,118.244 323.890,118.372 324.000 C 118.500 324.110,119.132 324.920,119.777 325.800 C 121.592 328.277,129.504 336.008,132.400 338.135 C 133.830 339.185,135.270 340.262,135.600 340.528 C 142.451 346.047,157.289 352.506,169.400 355.241 C 180.241 357.689,185.223 358.156,200.600 358.168 C 217.184 358.180,224.511 357.381,234.900 354.427 C 235.725 354.192,236.985 353.835,237.700 353.633 C 246.558 351.134,260.335 344.165,266.894 338.866 C 274.723 332.542,278.649 328.416,284.463 320.400 C 286.749 317.248,290.808 309.775,292.501 305.600 C 292.725 305.050,293.051 304.240,293.227 303.800 C 294.035 301.781,295.413 297.179,296.370 293.300 C 299.850 279.200,299.386 258.877,295.254 244.400 C 295.034 243.630,294.737 242.550,294.594 242.000 C 294.450 241.450,294.186 240.640,294.007 240.200 C 293.828 239.760,293.464 238.770,293.200 238.000 C 289.378 226.871,281.768 214.675,273.266 206.054 C 268.136 200.853,260.697 194.778,257.900 193.505 C 257.295 193.230,256.800 192.869,256.800 192.702 C 256.800 192.536,256.607 192.400,256.372 192.400 C 256.137 192.400,255.192 191.894,254.272 191.276 C 252.671 190.199,247.469 187.574,242.800 185.486 C 241.590 184.945,236.370 183.106,231.200 181.398 C 226.030 179.690,221.440 178.159,221.000 177.994 C 220.560 177.830,218.310 177.116,216.000 176.407 C 213.690 175.697,211.487 174.956,211.105 174.759 C 210.723 174.561,210.059 174.400,209.629 174.400 C 209.199 174.400,208.736 174.220,208.600 174.000 C 208.464 173.780,208.001 173.600,207.571 173.600 C 207.141 173.600,206.477 173.439,206.095 173.241 C 205.713 173.044,203.510 172.303,201.200 171.593 C 198.890 170.884,196.640 170.169,196.200 170.003 C 195.760 169.838,193.600 169.124,191.400 168.417 C 184.717 166.269,177.247 162.374,174.141 159.418 C 173.669 158.968,172.520 157.880,171.589 157.000 C 167.803 153.423,164.856 149.228,162.596 144.200 C 160.442 139.407,160.283 138.910,159.097 133.200 C 158.581 130.719,158.464 117.850,158.934 115.400 C 159.348 113.243,160.003 110.815,160.499 109.600 C 160.723 109.050,161.084 108.150,161.300 107.600 C 161.516 107.050,161.884 106.240,162.117 105.800 C 162.349 105.360,162.913 104.298,163.370 103.439 C 170.448 90.132,195.694 82.795,216.600 87.968 C 217.480 88.186,218.740 88.476,219.400 88.612 C 220.060 88.749,221.005 89.027,221.500 89.230 C 221.995 89.434,222.805 89.758,223.300 89.951 C 225.237 90.706,229.807 93.013,229.933 93.298 C 230.007 93.464,230.252 93.600,230.478 93.600 C 231.055 93.600,234.689 96.658,236.600 98.751 C 241.749 104.391,244.166 109.443,245.968 118.331 C 246.206 119.502,246.400 123.327,246.400 126.831 L 246.400 133.200 270.845 133.200 L 295.289 133.200 295.044 126.100 C 294.736 117.187,294.219 112.606,292.799 106.200 C 292.555 105.100,292.256 103.613,292.134 102.896 C 292.012 102.179,291.751 101.494,291.556 101.373 C 291.360 101.252,291.200 100.634,291.200 100.000 C 291.200 99.366,291.020 98.736,290.800 98.600 C 290.580 98.464,290.400 98.001,290.400 97.571 C 290.400 97.141,290.241 96.477,290.047 96.095 C 289.852 95.713,289.511 94.950,289.287 94.400 C 283.628 80.456,275.232 69.115,264.400 60.784 C 263.410 60.023,262.510 59.298,262.400 59.174 C 261.734 58.420,256.119 54.922,251.800 52.570 C 247.920 50.458,238.928 46.901,234.000 45.529 C 229.606 44.307,222.152 42.925,216.800 42.341 C 212.608 41.883,193.889 41.445,193.538 41.796 " stroke="none" fill="#fbfbfc" fill-rule="evenodd"></path><path id="path1" d="M30.600 0.292 C 29.720 0.381,28.829 0.621,28.620 0.827 C 28.411 1.032,27.826 1.200,27.320 1.200 C 26.814 1.200,26.400 1.380,26.400 1.600 C 26.400 1.820,25.860 2.000,25.200 2.000 C 24.540 2.000,24.000 2.180,24.000 2.400 C 24.000 2.620,23.640 2.800,23.200 2.800 C 22.760 2.800,22.400 2.980,22.400 3.200 C 22.400 3.420,22.040 3.600,21.600 3.600 C 21.160 3.600,20.800 3.780,20.800 4.000 C 20.800 4.220,20.440 4.400,20.000 4.400 C 19.560 4.400,19.200 4.580,19.200 4.800 C 19.200 5.020,18.957 5.200,18.659 5.200 C 18.362 5.200,17.554 5.740,16.863 6.400 C 16.172 7.060,15.411 7.600,15.171 7.600 C 14.602 7.600,7.600 14.602,7.600 15.171 C 7.600 15.411,7.060 16.172,6.400 16.863 C 5.740 17.554,5.200 18.362,5.200 18.659 C 5.200 18.957,5.020 19.200,4.800 19.200 C 4.580 19.200,4.400 19.560,4.400 20.000 C 4.400 20.440,4.220 20.800,4.000 20.800 C 3.780 20.800,3.600 21.160,3.600 21.600 C 3.600 22.040,3.420 22.400,3.200 22.400 C 2.980 22.400,2.800 22.760,2.800 23.200 C 2.800 23.640,2.620 24.000,2.400 24.000 C 2.180 24.000,2.000 24.540,2.000 25.200 C 2.000 25.860,1.820 26.400,1.600 26.400 C 1.380 26.400,1.200 26.814,1.200 27.320 C 1.200 27.826,0.975 28.465,0.700 28.740 C -0.036 29.476,-0.036 370.524,0.700 371.260 C 0.975 371.535,1.200 372.174,1.200 372.680 C 1.200 373.186,1.380 373.600,1.600 373.600 C 1.820 373.600,2.000 374.140,2.000 374.800 C 2.000 375.460,2.180 376.000,2.400 376.000 C 2.620 376.000,2.800 376.360,2.800 376.800 C 2.800 377.240,2.980 377.600,3.200 377.600 C 3.420 377.600,3.600 377.960,3.600 378.400 C 3.600 378.840,3.780 379.200,4.000 379.200 C 4.220 379.200,4.400 379.560,4.400 380.000 C 4.400 380.440,4.580 380.800,4.800 380.800 C 5.020 380.800,5.200 381.043,5.200 381.341 C 5.200 381.638,5.740 382.446,6.400 383.137 C 7.060 383.828,7.600 384.589,7.600 384.829 C 7.600 385.398,14.602 392.400,15.171 392.400 C 15.411 392.400,16.172 392.940,16.863 393.600 C 17.554 394.260,18.362 394.800,18.659 394.800 C 18.957 394.800,19.200 394.980,19.200 395.200 C 19.200 395.420,19.560 395.600,20.000 395.600 C 20.440 395.600,20.800 395.780,20.800 396.000 C 20.800 396.220,21.160 396.400,21.600 396.400 C 22.040 396.400,22.400 396.580,22.400 396.800 C 22.400 397.020,22.760 397.200,23.200 397.200 C 23.640 397.200,24.000 397.380,24.000 397.600 C 24.000 397.820,24.540 398.000,25.200 398.000 C 25.860 398.000,26.400 398.180,26.400 398.400 C 26.400 398.620,26.814 398.800,27.320 398.800 C 27.826 398.800,28.465 399.025,28.740 399.300 C 29.138 399.698,63.925 399.800,200.000 399.800 C 336.075 399.800,370.862 399.698,371.260 399.300 C 371.535 399.025,372.174 398.800,372.680 398.800 C 373.186 398.800,373.600 398.620,373.600 398.400 C 373.600 398.180,374.140 398.000,374.800 398.000 C 375.460 398.000,376.000 397.820,376.000 397.600 C 376.000 397.380,376.360 397.200,376.800 397.200 C 377.240 397.200,377.600 397.020,377.600 396.800 C 377.600 396.580,377.960 396.400,378.400 396.400 C 378.840 396.400,379.200 396.220,379.200 396.000 C 379.200 395.780,379.560 395.600,380.000 395.600 C 380.440 395.600,380.800 395.420,380.800 395.200 C 380.800 394.980,381.043 394.800,381.341 394.800 C 381.638 394.800,382.446 394.260,383.137 393.600 C 383.828 392.940,384.589 392.400,384.829 392.400 C 385.398 392.400,392.400 385.398,392.400 384.829 C 392.400 384.589,392.940 383.828,393.600 383.137 C 394.260 382.446,394.800 381.638,394.800 381.341 C 394.800 381.043,394.980 380.800,395.200 380.800 C 395.420 380.800,395.600 380.440,395.600 380.000 C 395.600 379.560,395.780 379.200,396.000 379.200 C 396.220 379.200,396.400 378.840,396.400 378.400 C 396.400 377.960,396.580 377.600,396.800 377.600 C 397.020 377.600,397.200 377.240,397.200 376.800 C 397.200 376.360,397.380 376.000,397.600 376.000 C 397.820 376.000,398.000 375.460,398.000 374.800 C 398.000 374.140,398.180 373.600,398.400 373.600 C 398.620 373.600,398.800 373.186,398.800 372.680 C 398.800 372.174,399.025 371.535,399.300 371.260 C 400.036 370.524,400.036 29.476,399.300 28.740 C 399.025 28.465,398.800 27.826,398.800 27.320 C 398.800 26.814,398.620 26.400,398.400 26.400 C 398.180 26.400,398.000 25.860,398.000 25.200 C 398.000 24.540,397.820 24.000,397.600 24.000 C 397.380 24.000,397.200 23.640,397.200 23.200 C 397.200 22.760,397.020 22.400,396.800 22.400 C 396.580 22.400,396.400 22.040,396.400 21.600 C 396.400 21.160,396.220 20.800,396.000 20.800 C 395.780 20.800,395.600 20.440,395.600 20.000 C 395.600 19.560,395.420 19.200,395.200 19.200 C 394.980 19.200,394.800 18.957,394.800 18.659 C 394.800 18.362,394.260 17.554,393.600 16.863 C 392.940 16.172,392.400 15.411,392.400 15.171 C 392.400 14.602,385.398 7.600,384.829 7.600 C 384.589 7.600,383.828 7.060,383.137 6.400 C 382.446 5.740,381.638 5.200,381.341 5.200 C 381.043 5.200,380.800 5.020,380.800 4.800 C 380.800 4.580,380.440 4.400,380.000 4.400 C 379.560 4.400,379.200 4.220,379.200 4.000 C 379.200 3.780,378.840 3.600,378.400 3.600 C 377.960 3.600,377.600 3.420,377.600 3.200 C 377.600 2.980,377.240 2.800,376.800 2.800 C 376.360 2.800,376.000 2.620,376.000 2.400 C 376.000 2.180,375.460 2.000,374.800 2.000 C 374.140 2.000,373.600 1.820,373.600 1.600 C 373.600 1.380,373.186 1.200,372.680 1.200 C 372.174 1.200,371.535 0.975,371.260 0.700 C 370.785 0.225,35.250 -0.177,30.600 0.292 M212.000 41.225 C 215.190 41.407,219.060 41.752,220.600 41.990 C 222.140 42.228,224.210 42.525,225.200 42.650 C 226.190 42.775,227.171 43.040,227.380 43.239 C 227.589 43.437,228.296 43.600,228.952 43.600 C 229.607 43.600,230.696 43.768,231.372 43.973 C 232.047 44.178,233.410 44.556,234.400 44.812 C 235.390 45.068,236.513 45.440,236.895 45.639 C 237.277 45.838,237.832 46.000,238.129 46.000 C 240.231 46.000,257.200 53.896,257.200 54.874 C 257.200 55.053,257.393 55.200,257.628 55.200 C 258.135 55.200,261.741 57.609,261.933 58.077 C 262.007 58.255,262.245 58.400,262.462 58.400 C 262.679 58.400,263.086 58.625,263.365 58.900 C 263.645 59.175,264.487 59.850,265.237 60.400 C 267.945 62.386,275.761 70.080,277.178 72.154 C 277.495 72.619,278.053 73.270,278.417 73.600 C 280.644 75.618,287.365 87.296,289.698 93.200 C 289.916 93.750,290.252 94.513,290.447 94.895 C 290.641 95.277,290.800 95.941,290.800 96.371 C 290.800 96.801,290.980 97.264,291.200 97.400 C 291.420 97.536,291.600 98.076,291.600 98.600 C 291.600 99.124,291.780 99.664,292.000 99.800 C 292.220 99.936,292.400 100.566,292.400 101.200 C 292.400 101.834,292.580 102.464,292.800 102.600 C 293.020 102.736,293.200 103.431,293.200 104.144 C 293.200 104.857,293.363 105.611,293.561 105.820 C 293.760 106.029,294.025 107.010,294.150 108.000 C 294.275 108.990,294.572 111.060,294.810 112.600 C 295.358 116.141,296.190 132.527,295.866 133.373 C 295.647 133.943,293.141 133.996,270.911 133.903 L 246.200 133.800 245.924 128.000 C 245.773 124.810,245.451 120.940,245.209 119.400 C 244.968 117.860,244.668 115.924,244.543 115.097 C 244.418 114.271,244.155 113.495,243.958 113.374 C 243.761 113.252,243.600 112.801,243.600 112.371 C 243.600 111.941,243.441 111.277,243.247 110.895 C 242.904 110.222,242.659 109.650,241.536 106.900 C 241.244 106.185,240.869 105.600,240.702 105.600 C 240.536 105.600,240.397 105.375,240.393 105.100 C 240.379 104.127,233.557 96.670,230.970 94.800 C 228.806 93.236,224.090 90.800,223.226 90.800 C 222.845 90.800,222.410 90.677,222.259 90.526 C 221.833 90.099,219.092 89.213,218.180 89.206 C 217.729 89.203,217.189 89.037,216.980 88.839 C 216.075 87.978,203.942 87.259,196.800 87.642 C 191.349 87.934,189.832 88.118,187.100 88.816 C 182.144 90.084,181.193 90.388,179.505 91.247 C 179.123 91.441,178.538 91.600,178.205 91.600 C 177.872 91.600,177.600 91.780,177.600 92.000 C 177.600 92.220,177.240 92.400,176.800 92.400 C 176.360 92.400,176.000 92.580,176.000 92.800 C 176.000 93.020,175.807 93.200,175.572 93.200 C 174.174 93.200,167.347 99.161,165.318 102.154 C 164.704 103.059,164.109 103.890,163.996 104.000 C 163.761 104.227,162.100 107.693,161.503 109.200 C 161.285 109.750,160.948 110.513,160.753 110.895 C 160.559 111.277,160.400 112.121,160.400 112.771 C 160.400 113.421,160.247 114.047,160.060 114.163 C 159.161 114.718,158.830 124.670,159.534 130.000 C 160.320 135.960,160.477 136.800,160.842 137.026 C 161.039 137.148,161.200 137.689,161.200 138.229 C 161.200 138.769,161.359 139.523,161.553 139.905 C 161.748 140.287,162.085 141.050,162.303 141.600 C 164.767 147.824,173.424 159.600,175.535 159.600 C 175.722 159.600,176.399 160.054,177.038 160.609 C 179.081 162.383,186.436 165.869,191.800 167.605 C 194.660 168.530,197.313 169.448,197.695 169.644 C 198.077 169.840,198.741 170.000,199.171 170.000 C 199.601 170.000,200.064 170.180,200.200 170.400 C 200.336 170.620,200.876 170.800,201.400 170.800 C 201.924 170.800,202.464 170.980,202.600 171.200 C 202.736 171.420,203.199 171.600,203.629 171.600 C 204.059 171.600,204.723 171.762,205.105 171.959 C 205.487 172.156,207.150 172.715,208.800 173.200 C 210.450 173.685,212.113 174.244,212.495 174.441 C 212.877 174.638,213.541 174.800,213.971 174.800 C 214.401 174.800,214.864 174.980,215.000 175.200 C 215.136 175.420,215.676 175.600,216.200 175.600 C 216.724 175.600,217.264 175.780,217.400 176.000 C 217.536 176.220,217.999 176.400,218.429 176.400 C 218.859 176.400,219.523 176.561,219.905 176.759 C 220.287 176.956,222.490 177.703,224.800 178.419 C 232.890 180.927,239.352 183.124,241.900 184.234 C 242.615 184.545,243.875 185.088,244.700 185.440 C 247.718 186.729,255.769 190.968,256.400 191.601 C 256.510 191.711,257.095 192.056,257.700 192.368 C 258.305 192.680,258.800 193.085,258.800 193.268 C 258.800 193.450,259.025 193.604,259.300 193.608 C 260.412 193.626,272.735 203.630,274.172 205.681 C 274.461 206.094,275.493 207.280,276.464 208.316 C 277.436 209.352,278.854 211.010,279.616 212.000 C 280.377 212.990,281.112 213.890,281.248 214.000 C 283.035 215.439,290.530 228.821,292.897 234.800 C 293.115 235.350,293.452 236.113,293.647 236.495 C 293.841 236.877,294.000 237.464,294.000 237.800 C 294.000 238.136,294.159 238.723,294.353 239.105 C 295.028 240.431,295.541 241.806,295.770 242.900 C 295.896 243.505,296.104 244.495,296.230 245.100 C 296.357 245.705,296.612 246.560,296.798 247.000 C 296.984 247.440,297.258 248.520,297.406 249.400 C 297.555 250.280,297.840 251.900,298.041 253.000 C 299.933 263.372,299.924 279.451,298.020 289.400 C 297.401 292.630,296.892 294.892,296.397 296.600 C 296.143 297.480,295.838 298.697,295.721 299.305 C 295.604 299.913,295.349 300.508,295.154 300.629 C 294.959 300.749,294.800 301.199,294.800 301.629 C 294.800 302.059,294.641 302.723,294.447 303.105 C 294.252 303.487,293.916 304.250,293.699 304.800 C 293.483 305.350,292.742 306.950,292.053 308.356 C 291.364 309.762,290.800 311.142,290.800 311.423 C 290.800 311.704,290.665 311.993,290.500 312.067 C 290.335 312.140,289.592 313.370,288.848 314.800 C 285.107 321.993,276.244 332.599,269.800 337.593 C 268.920 338.276,267.901 339.081,267.535 339.383 C 266.083 340.582,259.605 344.800,259.215 344.800 C 258.987 344.800,258.800 344.951,258.800 345.137 C 258.800 346.344,243.030 353.046,235.200 355.167 C 234.210 355.435,232.847 355.822,232.172 356.027 C 231.496 356.232,230.497 356.400,229.952 356.400 C 229.406 356.400,228.789 356.563,228.580 356.761 C 228.371 356.960,227.300 357.233,226.200 357.368 C 225.100 357.504,222.940 357.797,221.400 358.021 C 209.068 359.812,192.079 359.799,179.800 357.990 C 178.260 357.763,176.190 357.483,175.200 357.368 C 174.210 357.253,173.040 357.000,172.600 356.806 C 172.160 356.613,171.215 356.352,170.500 356.227 C 169.785 356.102,168.615 355.898,167.900 355.773 C 167.185 355.648,166.240 355.398,165.800 355.218 C 165.360 355.038,164.190 354.667,163.200 354.392 C 156.669 352.581,143.785 347.316,142.800 346.055 C 142.690 345.914,142.060 345.535,141.400 345.212 C 139.771 344.414,136.631 342.322,136.467 341.923 C 136.393 341.745,136.112 341.600,135.842 341.600 C 135.572 341.600,135.001 341.285,134.574 340.900 C 134.147 340.515,132.719 339.390,131.402 338.400 C 129.042 336.626,122.300 330.140,120.383 327.800 C 116.099 322.570,113.621 318.856,110.509 313.000 C 109.933 311.916,107.597 306.839,107.104 305.600 C 106.886 305.050,106.548 304.287,106.353 303.905 C 106.159 303.523,106.000 302.859,106.000 302.429 C 106.000 301.999,105.820 301.536,105.600 301.400 C 105.380 301.264,105.200 300.724,105.200 300.200 C 105.200 299.676,105.020 299.136,104.800 299.000 C 104.580 298.864,104.400 298.234,104.400 297.600 C 104.400 296.966,104.220 296.336,104.000 296.200 C 103.780 296.064,103.600 295.481,103.600 294.905 C 103.600 294.328,103.431 293.304,103.224 292.628 C 102.789 291.207,102.219 288.187,101.633 284.200 C 101.029 280.094,100.268 266.645,100.583 265.653 L 100.854 264.800 125.809 264.800 L 150.764 264.800 150.968 266.100 C 151.081 266.815,151.248 270.190,151.340 273.600 C 151.551 281.439,154.906 293.600,156.858 293.600 C 157.046 293.600,157.201 293.825,157.201 294.100 C 157.209 296.842,172.030 308.426,175.500 308.403 C 175.775 308.401,176.000 308.580,176.000 308.800 C 176.000 309.020,176.439 309.200,176.976 309.200 C 177.513 309.200,178.064 309.380,178.200 309.600 C 178.336 309.820,178.966 310.000,179.600 310.000 C 180.234 310.000,180.852 310.160,180.973 310.356 C 181.094 310.551,181.869 310.826,182.696 310.967 C 183.523 311.107,185.190 311.398,186.400 311.614 C 195.764 313.286,209.202 313.275,217.000 311.588 C 218.100 311.350,219.587 311.056,220.304 310.934 C 221.021 310.812,221.706 310.551,221.827 310.356 C 221.948 310.160,222.476 310.000,223.000 310.000 C 223.524 310.000,224.064 309.820,224.200 309.600 C 224.336 309.380,224.887 309.200,225.424 309.200 C 225.961 309.200,226.400 309.020,226.400 308.800 C 226.400 308.580,226.653 308.400,226.962 308.400 C 227.513 308.400,230.805 306.824,231.200 306.371 C 231.310 306.245,231.670 306.042,232.000 305.919 C 235.386 304.665,245.200 294.244,245.200 291.902 C 245.200 291.604,245.358 291.189,245.551 290.980 C 248.860 287.393,250.284 270.841,248.147 260.800 C 247.230 256.489,244.059 248.467,243.115 248.067 C 242.942 247.993,242.800 247.712,242.800 247.442 C 242.800 247.172,242.480 246.602,242.089 246.175 C 241.698 245.749,240.937 244.770,240.397 244.000 C 237.510 239.881,231.681 235.187,225.997 232.406 C 224.129 231.492,222.287 230.577,221.905 230.372 C 221.523 230.167,220.859 230.000,220.429 230.000 C 219.999 230.000,219.536 229.820,219.400 229.600 C 219.264 229.380,218.724 229.200,218.200 229.200 C 217.676 229.200,217.136 229.020,217.000 228.800 C 216.864 228.580,216.324 228.400,215.800 228.400 C 215.276 228.400,214.736 228.220,214.600 228.000 C 214.464 227.780,213.924 227.600,213.400 227.600 C 212.876 227.600,212.336 227.420,212.200 227.200 C 212.064 226.980,211.434 226.800,210.800 226.800 C 210.166 226.800,209.536 226.620,209.400 226.400 C 209.264 226.180,208.724 226.000,208.200 226.000 C 207.676 226.000,207.136 225.820,207.000 225.600 C 206.864 225.380,206.324 225.200,205.800 225.200 C 205.276 225.200,204.736 225.020,204.600 224.800 C 204.464 224.580,203.924 224.400,203.400 224.400 C 202.876 224.400,202.336 224.220,202.200 224.000 C 202.064 223.780,201.434 223.600,200.800 223.600 C 200.166 223.600,199.536 223.420,199.400 223.200 C 199.264 222.980,198.801 222.800,198.371 222.800 C 197.941 222.800,197.277 222.635,196.895 222.434 C 196.513 222.232,194.850 221.680,193.200 221.207 C 191.550 220.733,189.750 220.188,189.200 219.996 C 188.650 219.804,186.040 218.990,183.400 218.188 C 176.825 216.191,173.926 215.231,173.105 214.781 C 172.723 214.571,172.059 214.400,171.629 214.400 C 171.199 214.400,170.736 214.220,170.600 214.000 C 170.464 213.780,170.091 213.600,169.772 213.600 C 169.453 213.600,168.338 213.219,167.296 212.753 C 166.253 212.288,164.770 211.640,164.000 211.313 C 155.995 207.915,145.591 201.517,139.973 196.536 C 133.909 191.159,129.090 185.937,126.006 181.400 C 125.258 180.300,124.501 179.340,124.323 179.267 C 124.145 179.193,124.000 178.878,124.000 178.567 C 124.000 178.255,123.820 178.000,123.600 178.000 C 123.380 178.000,123.200 177.730,123.200 177.400 C 123.200 177.070,123.065 176.800,122.899 176.800 C 122.734 176.800,122.153 175.945,121.609 174.900 C 121.065 173.855,120.508 172.910,120.371 172.800 C 119.486 172.088,114.185 159.857,113.176 156.200 C 112.994 155.540,112.641 154.280,112.392 153.400 C 110.097 145.286,109.507 139.823,109.500 126.600 C 109.494 114.519,109.648 112.827,111.551 104.000 C 112.343 100.332,114.486 93.771,115.864 90.800 C 117.516 87.238,120.022 82.377,120.401 82.000 C 120.511 81.890,120.856 81.305,121.168 80.700 C 121.480 80.095,121.885 79.600,122.068 79.600 C 122.250 79.600,122.400 79.364,122.400 79.075 C 122.400 78.787,122.720 78.202,123.111 77.775 C 123.502 77.349,124.258 76.370,124.792 75.600 C 125.325 74.830,125.861 74.110,125.983 74.000 C 126.105 73.890,126.726 73.100,127.364 72.245 C 128.946 70.126,134.952 64.097,137.400 62.172 C 138.500 61.308,139.490 60.501,139.600 60.381 C 139.710 60.260,140.430 59.725,141.200 59.192 C 141.970 58.658,142.949 57.902,143.375 57.511 C 143.802 57.120,144.387 56.800,144.675 56.800 C 144.964 56.800,145.200 56.620,145.200 56.400 C 145.200 56.180,145.436 56.000,145.725 56.000 C 146.013 56.000,146.603 55.685,147.037 55.300 C 147.470 54.915,148.359 54.305,149.012 53.943 C 155.366 50.432,161.507 47.727,166.600 46.197 C 168.580 45.602,170.560 44.967,171.000 44.785 C 171.803 44.453,173.309 44.143,176.103 43.735 C 176.929 43.614,177.705 43.355,177.826 43.158 C 177.948 42.961,178.901 42.800,179.944 42.800 C 180.987 42.800,182.011 42.635,182.220 42.432 C 183.292 41.395,201.834 40.643,212.000 41.225 " stroke="none" fill="#239cec" fill-rule="evenodd"></path><path id="path2" d="M192.700 41.489 C 193.415 41.578,194.585 41.578,195.300 41.489 C 196.015 41.401,195.430 41.328,194.000 41.328 C 192.570 41.328,191.985 41.401,192.700 41.489 M210.300 41.489 C 211.015 41.578,212.185 41.578,212.900 41.489 C 213.615 41.401,213.030 41.328,211.600 41.328 C 210.170 41.328,209.585 41.401,210.300 41.489 M184.705 42.283 C 185.202 42.379,185.922 42.375,186.305 42.275 C 186.687 42.175,186.280 42.096,185.400 42.101 C 184.520 42.105,184.207 42.187,184.705 42.283 M143.660 57.603 C 142.747 58.264,142.000 58.903,142.000 59.023 C 142.000 59.211,144.254 57.677,145.380 56.722 C 146.327 55.919,145.156 56.518,143.660 57.603 M260.000 56.946 C 260.000 57.056,260.540 57.530,261.200 58.000 C 261.860 58.470,262.400 58.764,262.400 58.654 C 262.400 58.544,261.860 58.070,261.200 57.600 C 260.540 57.130,260.000 56.836,260.000 56.946 M132.400 67.000 C 130.761 68.650,129.510 70.000,129.620 70.000 C 129.730 70.000,131.161 68.650,132.800 67.000 C 134.439 65.350,135.690 64.000,135.580 64.000 C 135.470 64.000,134.039 65.350,132.400 67.000 M279.600 76.000 C 280.070 76.660,280.544 77.200,280.654 77.200 C 280.764 77.200,280.470 76.660,280.000 76.000 C 279.530 75.340,279.056 74.800,278.946 74.800 C 278.836 74.800,279.130 75.340,279.600 76.000 M123.293 77.900 C 122.257 79.396,121.921 80.000,122.123 80.000 C 122.217 80.000,122.770 79.280,123.353 78.400 C 124.536 76.612,124.484 76.179,123.293 77.900 M197.907 87.090 C 198.626 87.179,199.706 87.177,200.307 87.086 C 200.908 86.995,200.320 86.922,199.000 86.924 C 197.680 86.926,197.188 87.001,197.907 87.090 M204.500 87.087 C 205.105 87.178,206.095 87.178,206.700 87.087 C 207.305 86.995,206.810 86.920,205.600 86.920 C 204.390 86.920,203.895 86.995,204.500 87.087 M193.500 87.482 C 193.995 87.578,194.805 87.578,195.300 87.482 C 195.795 87.387,195.390 87.309,194.400 87.309 C 193.410 87.309,193.005 87.387,193.500 87.482 M208.705 87.483 C 209.202 87.579,209.922 87.575,210.305 87.475 C 210.687 87.375,210.280 87.296,209.400 87.301 C 208.520 87.305,208.207 87.387,208.705 87.483 M188.800 88.000 C 187.996 88.257,187.957 88.323,188.600 88.332 C 189.040 88.338,189.760 88.189,190.200 88.000 C 191.219 87.562,190.168 87.562,188.800 88.000 M213.800 88.000 C 214.240 88.189,214.960 88.338,215.400 88.332 C 216.043 88.323,216.004 88.257,215.200 88.000 C 213.832 87.562,212.781 87.562,213.800 88.000 M171.722 95.029 L 170.600 96.058 171.900 95.154 C 172.615 94.657,173.200 94.193,173.200 94.125 C 173.200 93.809,172.758 94.080,171.722 95.029 M167.986 98.300 L 165.800 100.600 168.100 98.414 C 170.237 96.382,170.583 96.000,170.286 96.000 C 170.224 96.000,169.189 97.035,167.986 98.300 M235.600 98.600 C 237.017 100.030,238.267 101.200,238.377 101.200 C 238.487 101.200,237.417 100.030,236.000 98.600 C 234.583 97.170,233.333 96.000,233.223 96.000 C 233.113 96.000,234.183 97.170,235.600 98.600 M294.493 113.600 C 294.493 114.370,294.575 114.685,294.676 114.300 C 294.776 113.915,294.776 113.285,294.676 112.900 C 294.575 112.515,294.493 112.830,294.493 113.600 M109.337 121.400 C 109.339 123.160,109.409 123.830,109.493 122.889 C 109.578 121.949,109.577 120.509,109.491 119.689 C 109.405 118.870,109.336 119.640,109.337 121.400 M295.340 122.400 C 295.340 124.270,295.409 125.035,295.493 124.100 C 295.577 123.165,295.577 121.635,295.493 120.700 C 295.409 119.765,295.340 120.530,295.340 122.400 M109.342 132.200 C 109.341 134.180,109.408 135.040,109.492 134.112 C 109.576 133.184,109.577 131.564,109.495 130.512 C 109.412 129.460,109.343 130.220,109.342 132.200 M171.400 156.400 C 172.928 157.940,174.269 159.200,174.379 159.200 C 174.489 159.200,173.328 157.940,171.800 156.400 C 170.272 154.860,168.931 153.600,168.821 153.600 C 168.711 153.600,169.872 154.860,171.400 156.400 M134.600 191.200 C 136.571 193.180,138.273 194.800,138.383 194.800 C 138.493 194.800,136.971 193.180,135.000 191.200 C 133.029 189.220,131.327 187.600,131.217 187.600 C 131.107 187.600,132.629 189.220,134.600 191.200 M139.200 195.325 C 139.200 195.394,139.785 195.979,140.500 196.625 L 141.800 197.800 140.625 196.500 C 139.530 195.288,139.200 195.016,139.200 195.325 M266.800 199.325 C 266.800 199.394,267.385 199.979,268.100 200.625 L 269.400 201.800 268.225 200.500 C 267.130 199.288,266.800 199.016,266.800 199.325 M145.200 200.125 C 145.200 200.224,145.861 200.809,146.668 201.425 C 147.476 202.041,148.011 202.341,147.856 202.091 C 147.540 201.579,145.200 199.847,145.200 200.125 M272.000 204.200 C 272.746 204.970,273.447 205.600,273.557 205.600 C 273.667 205.600,273.146 204.970,272.400 204.200 C 271.654 203.430,270.953 202.800,270.843 202.800 C 270.733 202.800,271.254 203.430,272.000 204.200 M279.600 212.800 C 280.297 213.680,280.957 214.400,281.067 214.400 C 281.177 214.400,280.697 213.680,280.000 212.800 C 279.303 211.920,278.643 211.200,278.533 211.200 C 278.423 211.200,278.903 211.920,279.600 212.800 M298.493 260.400 C 298.493 261.170,298.575 261.485,298.676 261.100 C 298.776 260.715,298.776 260.085,298.676 259.700 C 298.575 259.315,298.493 259.630,298.493 260.400 M248.456 261.200 C 248.456 261.530,248.611 262.160,248.800 262.600 C 249.017 263.104,249.144 263.178,249.144 262.800 C 249.144 262.470,248.989 261.840,248.800 261.400 C 248.583 260.896,248.456 260.822,248.456 261.200 M298.901 263.400 C 298.905 264.280,298.987 264.593,299.083 264.095 C 299.179 263.598,299.175 262.878,299.075 262.495 C 298.975 262.113,298.896 262.520,298.901 263.400 M101.070 265.064 C 100.921 265.212,100.834 266.968,100.876 268.967 L 100.951 272.600 101.176 269.000 L 101.400 265.400 125.800 265.400 L 150.200 265.400 150.431 269.200 L 150.663 273.000 150.631 269.000 L 150.600 265.000 125.970 264.897 C 112.423 264.840,101.218 264.915,101.070 265.064 M249.293 266.400 C 249.293 267.170,249.375 267.485,249.476 267.100 C 249.576 266.715,249.576 266.085,249.476 265.700 C 249.375 265.315,249.293 265.630,249.293 266.400 M249.750 272.200 C 249.751 274.620,249.816 275.558,249.896 274.285 C 249.976 273.012,249.975 271.032,249.894 269.885 C 249.814 268.738,249.749 269.780,249.750 272.200 M101.328 276.400 C 101.328 277.830,101.401 278.415,101.489 277.700 C 101.578 276.985,101.578 275.815,101.489 275.100 C 101.401 274.385,101.328 274.970,101.328 276.400 M150.880 278.200 C 150.880 278.640,151.024 279.450,151.200 280.000 C 151.454 280.792,151.520 280.833,151.520 280.200 C 151.520 279.760,151.376 278.950,151.200 278.400 C 150.946 277.608,150.880 277.567,150.880 278.200 M298.493 282.400 C 298.493 283.170,298.575 283.485,298.676 283.100 C 298.776 282.715,298.776 282.085,298.676 281.700 C 298.575 281.315,298.493 281.630,298.493 282.400 M297.000 291.600 C 296.848 292.291,296.807 292.941,296.909 293.042 C 297.011 293.144,297.209 292.653,297.350 291.950 C 297.491 291.247,297.531 290.598,297.441 290.508 C 297.350 290.417,297.152 290.909,297.000 291.600 M238.200 301.494 C 236.660 302.957,235.940 303.774,236.600 303.310 C 237.770 302.486,241.548 298.783,241.183 298.817 C 241.082 298.827,239.740 300.031,238.200 301.494 M162.200 300.800 C 163.059 301.680,163.852 302.400,163.962 302.400 C 164.072 302.400,163.459 301.680,162.600 300.800 C 161.741 299.920,160.948 299.200,160.838 299.200 C 160.728 299.200,161.341 299.920,162.200 300.800 M186.000 312.000 C 187.368 312.438,188.419 312.438,187.400 312.000 C 186.960 311.811,186.240 311.662,185.800 311.668 C 185.157 311.677,185.196 311.743,186.000 312.000 M216.200 312.000 C 215.696 312.217,215.622 312.344,216.000 312.344 C 216.330 312.344,216.960 312.189,217.400 312.000 C 217.904 311.783,217.978 311.656,217.600 311.656 C 217.270 311.656,216.640 311.811,216.200 312.000 M283.544 322.300 C 282.393 323.689,281.906 324.400,282.104 324.400 C 282.214 324.400,282.786 323.770,283.373 323.000 C 284.463 321.571,284.595 321.032,283.544 322.300 M278.378 328.700 L 277.000 330.200 278.500 328.822 C 279.325 328.063,280.000 327.388,280.000 327.322 C 280.000 327.016,279.662 327.304,278.378 328.700 M122.800 330.200 C 123.546 330.970,124.247 331.600,124.357 331.600 C 124.467 331.600,123.946 330.970,123.200 330.200 C 122.454 329.430,121.753 328.800,121.643 328.800 C 121.533 328.800,122.054 329.430,122.800 330.200 M127.000 334.400 C 127.859 335.280,128.652 336.000,128.762 336.000 C 128.872 336.000,128.259 335.280,127.400 334.400 C 126.541 333.520,125.748 332.800,125.638 332.800 C 125.528 332.800,126.141 333.520,127.000 334.400 M266.200 339.835 L 265.000 340.866 266.300 340.006 C 267.015 339.533,267.600 339.068,267.600 338.973 C 267.600 338.673,267.431 338.778,266.200 339.835 M134.433 340.530 C 134.525 340.601,135.230 341.066,136.000 341.563 L 137.400 342.466 136.200 341.435 C 135.540 340.868,134.835 340.403,134.633 340.402 C 134.432 340.401,134.342 340.458,134.433 340.530 M170.000 355.982 C 170.330 356.205,170.945 356.391,171.367 356.394 C 172.390 356.402,172.071 356.173,170.600 355.844 C 169.724 355.648,169.562 355.685,170.000 355.982 M220.500 357.876 C 220.885 357.976,221.515 357.976,221.900 357.876 C 222.285 357.775,221.970 357.693,221.200 357.693 C 220.430 357.693,220.115 357.775,220.500 357.876 M186.505 358.687 C 187.114 358.779,188.014 358.777,188.505 358.682 C 188.997 358.587,188.500 358.511,187.400 358.514 C 186.300 358.517,185.897 358.595,186.505 358.687 M212.900 358.687 C 213.505 358.778,214.495 358.778,215.100 358.687 C 215.705 358.595,215.210 358.520,214.000 358.520 C 212.790 358.520,212.295 358.595,212.900 358.687 M194.291 359.089 C 195.001 359.177,196.261 359.179,197.091 359.092 C 197.921 359.005,197.340 358.933,195.800 358.931 C 194.260 358.929,193.581 359.000,194.291 359.089 M205.900 359.089 C 206.615 359.178,207.785 359.178,208.500 359.089 C 209.215 359.001,208.630 358.928,207.200 358.928 C 205.770 358.928,205.185 359.001,205.900 359.089 " stroke="none" fill="#72c0f4" fill-rule="evenodd"></path><path id="path3" d="M199.500 41.498 C 201.315 41.572,204.285 41.572,206.100 41.498 C 207.915 41.423,206.430 41.363,202.800 41.363 C 199.170 41.363,197.685 41.423,199.500 41.498 M188.600 42.000 L 186.600 42.274 189.000 42.290 C 190.320 42.298,191.940 42.168,192.600 42.000 C 194.210 41.590,191.588 41.590,188.600 42.000 M213.000 41.978 C 214.197 42.305,219.483 42.536,219.167 42.248 C 219.075 42.165,217.380 41.996,215.400 41.873 C 213.238 41.739,212.279 41.781,213.000 41.978 M182.400 42.800 L 181.000 43.095 182.400 43.107 C 183.170 43.115,184.250 42.976,184.800 42.800 L 185.800 42.480 184.800 42.493 C 184.250 42.500,183.170 42.638,182.400 42.800 M220.600 42.786 C 221.357 43.125,224.721 43.364,224.367 43.054 C 224.275 42.974,223.210 42.800,222.000 42.668 C 220.563 42.512,220.078 42.552,220.600 42.786 M178.000 43.600 L 176.600 43.895 178.000 43.919 C 178.770 43.933,179.760 43.789,180.200 43.600 L 181.000 43.256 180.200 43.281 C 179.760 43.294,178.770 43.438,178.000 43.600 M225.400 43.600 C 225.840 43.789,226.740 43.935,227.400 43.925 L 228.600 43.905 227.400 43.600 C 226.740 43.432,225.840 43.286,225.400 43.275 L 224.600 43.256 225.400 43.600 M174.600 44.400 C 173.493 44.682,173.477 44.709,174.400 44.747 C 174.950 44.769,175.670 44.613,176.000 44.400 C 176.681 43.960,176.329 43.960,174.600 44.400 M229.200 44.379 C 229.530 44.604,230.325 44.791,230.967 44.794 C 232.504 44.802,232.184 44.570,230.200 44.238 C 229.054 44.046,228.770 44.086,229.200 44.379 M171.200 45.200 L 170.200 45.520 171.200 45.554 C 171.750 45.573,172.470 45.413,172.800 45.200 C 173.564 44.706,172.742 44.706,171.200 45.200 M232.800 45.182 C 233.130 45.405,233.745 45.591,234.167 45.594 C 235.190 45.602,234.871 45.373,233.400 45.044 C 232.524 44.848,232.362 44.885,232.800 45.182 M166.400 46.637 C 164.750 47.188,163.149 47.725,162.843 47.829 C 162.536 47.933,162.365 48.099,162.463 48.196 C 162.633 48.366,169.623 46.100,169.967 45.763 C 170.317 45.420,169.295 45.670,166.400 46.637 M235.237 45.771 C 235.331 45.864,236.783 46.403,238.464 46.967 C 240.144 47.531,243.010 48.622,244.833 49.390 C 246.655 50.159,248.228 50.705,248.328 50.605 C 248.429 50.505,247.994 50.226,247.361 49.985 C 246.729 49.745,245.669 49.310,245.006 49.018 C 241.331 47.402,234.646 45.179,235.237 45.771 M153.900 51.826 C 152.855 52.370,152.000 52.905,152.000 53.014 C 152.000 53.193,155.960 51.323,156.367 50.952 C 156.862 50.501,155.561 50.962,153.900 51.826 M254.200 53.811 C 254.640 54.169,255.540 54.726,256.200 55.050 C 257.322 55.601,257.348 55.597,256.600 54.989 C 256.160 54.631,255.260 54.074,254.600 53.750 C 253.478 53.199,253.452 53.203,254.200 53.811 M147.465 55.445 C 146.195 56.239,145.239 56.972,145.340 57.074 C 145.519 57.252,150.000 54.434,150.000 54.143 C 150.000 53.882,149.794 53.988,147.465 55.445 M257.600 55.724 C 257.600 55.817,258.365 56.398,259.300 57.015 C 260.235 57.632,260.789 57.880,260.531 57.568 C 260.034 56.967,257.600 55.436,257.600 55.724 M262.400 59.087 C 262.400 59.274,262.895 59.725,263.500 60.088 C 265.427 61.244,271.662 67.092,275.100 70.966 C 276.035 72.020,276.800 72.679,276.800 72.431 C 276.800 71.786,267.869 62.961,264.900 60.673 C 263.525 59.614,262.400 58.900,262.400 59.087 M137.904 62.395 C 134.228 65.463,127.200 72.611,127.200 73.282 C 127.200 73.460,128.445 72.193,129.966 70.466 C 131.487 68.740,133.962 66.264,135.466 64.964 C 136.970 63.664,138.290 62.493,138.400 62.363 C 138.510 62.232,139.469 61.467,140.531 60.663 C 141.592 59.858,142.297 59.200,142.096 59.200 C 141.896 59.200,140.009 60.638,137.904 62.395 M277.940 74.316 C 278.433 75.009,279.044 75.704,279.297 75.860 C 279.550 76.017,279.354 75.577,278.860 74.884 C 278.367 74.191,277.756 73.496,277.503 73.340 C 277.250 73.183,277.446 73.623,277.940 74.316 M125.427 75.400 C 124.840 76.170,124.503 76.798,124.680 76.795 C 124.856 76.792,125.407 76.162,125.904 75.395 C 127.068 73.597,126.800 73.600,125.427 75.400 M281.768 79.670 C 283.002 81.578,284.922 84.998,286.036 87.270 C 287.149 89.541,288.227 91.713,288.430 92.095 C 288.634 92.477,288.800 93.051,288.800 93.371 C 288.800 93.691,288.999 94.076,289.243 94.226 C 290.933 95.271,282.692 79.339,280.332 77.000 C 279.888 76.560,280.534 77.761,281.768 79.670 M119.414 84.635 C 119.041 85.204,118.827 85.761,118.939 85.872 C 119.050 85.983,119.429 85.518,119.781 84.837 C 120.559 83.333,120.344 83.215,119.414 84.635 M194.800 86.760 C 193.810 86.892,196.939 87.000,201.753 87.000 C 206.567 87.000,209.807 86.875,208.953 86.723 C 207.105 86.394,197.359 86.419,194.800 86.760 M188.200 87.659 C 185.394 88.318,183.341 88.892,180.643 89.772 C 180.226 89.908,179.979 90.112,180.093 90.226 C 180.207 90.340,180.998 90.167,181.850 89.841 C 183.485 89.216,189.767 87.717,191.800 87.467 C 192.699 87.357,192.598 87.315,191.400 87.301 C 190.520 87.291,189.080 87.452,188.200 87.659 M210.833 87.345 C 210.925 87.424,212.080 87.587,213.400 87.707 C 214.849 87.838,215.483 87.792,215.000 87.590 C 214.230 87.269,210.493 87.049,210.833 87.345 M116.616 90.274 C 115.430 92.864,112.718 100.819,112.073 103.600 C 111.004 108.212,110.825 109.130,110.627 111.000 C 110.482 112.376,110.529 112.750,110.780 112.200 C 110.980 111.760,111.156 110.752,111.172 109.960 C 111.187 109.168,111.358 107.998,111.550 107.360 C 111.743 106.722,112.118 105.210,112.384 104.000 C 113.053 100.954,115.908 92.605,117.083 90.260 C 117.617 89.193,117.970 88.237,117.868 88.135 C 117.766 88.032,117.203 88.995,116.616 90.274 M216.033 88.143 C 216.125 88.221,216.830 88.401,217.600 88.542 C 218.585 88.723,218.822 88.682,218.400 88.406 C 217.858 88.050,215.637 87.803,216.033 88.143 M219.233 88.944 C 219.705 89.350,221.643 89.593,221.410 89.216 C 221.268 88.987,220.683 88.800,220.110 88.800 C 219.536 88.800,219.142 88.865,219.233 88.944 M177.412 91.224 C 176.538 91.660,175.638 92.212,175.412 92.451 C 175.059 92.823,179.102 90.975,179.567 90.552 C 180.010 90.148,178.832 90.516,177.412 91.224 M173.200 93.633 L 172.200 94.448 173.500 93.814 C 174.215 93.465,174.800 93.094,174.800 92.990 C 174.800 92.592,174.163 92.848,173.200 93.633 M231.600 94.690 C 232.370 95.284,234.260 96.945,235.800 98.380 C 238.068 100.493,237.893 100.074,235.400 97.422 C 234.484 96.448,230.863 93.600,230.544 93.604 C 230.355 93.607,230.830 94.095,231.600 94.690 M168.803 97.053 C 166.028 99.671,162.933 103.466,163.286 103.819 C 163.385 103.919,164.159 102.996,165.005 101.768 C 165.850 100.540,167.808 98.380,169.355 96.968 C 170.903 95.555,172.044 94.400,171.892 94.400 C 171.740 94.400,170.349 95.594,168.803 97.053 M290.428 97.476 C 290.413 97.958,290.580 98.464,290.800 98.600 C 291.273 98.892,291.273 98.501,290.800 97.400 C 290.469 96.629,290.455 96.631,290.428 97.476 M291.200 100.110 C 291.200 100.683,291.387 101.268,291.616 101.410 C 291.889 101.579,291.938 101.277,291.760 100.534 C 291.392 99.001,291.200 98.856,291.200 100.110 M239.336 102.400 C 239.882 103.170,240.969 105.060,241.751 106.600 C 242.533 108.140,243.179 109.200,243.186 108.956 C 243.210 108.173,240.719 103.670,239.511 102.313 L 238.342 101.000 239.336 102.400 M292.034 103.000 C 292.022 103.440,292.187 104.070,292.400 104.400 C 292.914 105.195,292.914 104.196,292.400 103.000 L 292.056 102.200 292.034 103.000 M292.846 106.400 C 292.827 106.950,292.987 107.670,293.200 108.000 C 293.694 108.764,293.694 107.942,293.200 106.400 L 292.880 105.400 292.846 106.400 M293.653 110.400 C 293.631 111.170,293.787 112.070,294.000 112.400 C 294.477 113.139,294.477 112.076,294.000 110.200 L 293.695 109.000 293.653 110.400 M243.644 110.846 C 244.497 113.607,244.732 114.185,244.760 113.600 C 244.792 112.910,243.876 110.143,243.486 109.753 C 243.342 109.609,243.413 110.101,243.644 110.846 M159.449 112.615 C 159.312 112.973,159.216 113.656,159.236 114.133 C 159.262 114.747,159.385 114.608,159.659 113.656 C 160.057 112.272,159.894 111.458,159.449 112.615 M109.879 116.749 C 109.706 118.810,109.646 120.580,109.747 120.680 C 110.025 120.958,110.487 115.990,110.331 114.400 C 110.255 113.626,110.053 114.677,109.879 116.749 M245.038 115.800 C 245.370 117.784,245.602 118.104,245.594 116.567 C 245.591 115.925,245.404 115.130,245.179 114.800 C 244.886 114.370,244.846 114.654,245.038 115.800 M294.469 116.200 C 294.456 117.080,294.595 118.520,294.777 119.400 L 295.108 121.000 295.131 119.400 C 295.144 118.520,295.005 117.080,294.823 116.200 L 294.492 114.600 294.469 116.200 M158.652 116.900 C 158.324 118.125,158.389 130.430,158.728 131.286 C 158.878 131.663,159.000 128.378,159.000 123.986 C 159.000 119.594,158.976 116.000,158.947 116.000 C 158.917 116.000,158.785 116.405,158.652 116.900 M245.917 125.251 C 245.988 129.293,246.120 132.826,246.212 133.103 C 246.343 133.501,251.481 133.585,270.889 133.503 L 295.400 133.400 295.423 129.499 L 295.446 125.598 295.308 129.399 L 295.171 133.200 270.786 133.200 L 246.400 133.200 246.360 126.500 C 246.338 122.815,246.201 119.373,246.054 118.851 C 245.908 118.329,245.846 121.209,245.917 125.251 M109.324 126.600 C 109.326 127.920,109.401 128.412,109.490 127.693 C 109.579 126.974,109.577 125.894,109.486 125.293 C 109.395 124.692,109.322 125.280,109.324 126.600 M109.703 133.600 C 109.698 134.590,109.825 136.570,109.986 138.000 L 110.278 140.600 110.299 138.400 C 110.311 137.190,110.184 135.210,110.017 134.000 C 109.713 131.803,109.713 131.803,109.703 133.600 M159.206 133.833 C 159.209 134.475,159.396 135.270,159.621 135.600 C 159.914 136.030,159.954 135.746,159.762 134.600 C 159.430 132.616,159.198 132.296,159.206 133.833 M160.034 137.400 C 160.022 137.840,160.187 138.470,160.400 138.800 C 160.914 139.595,160.914 138.596,160.400 137.400 L 160.056 136.600 160.034 137.400 M110.659 143.000 C 110.793 144.100,110.969 145.075,111.051 145.167 C 111.364 145.517,111.126 142.561,110.780 141.800 C 110.535 141.261,110.495 141.654,110.659 143.000 M162.400 143.747 C 162.400 144.180,164.388 148.000,164.613 148.000 C 164.723 148.000,164.339 147.055,163.759 145.900 C 162.643 143.679,162.400 143.294,162.400 143.747 M111.387 147.200 C 111.968 150.952,114.191 158.239,116.299 163.304 C 117.474 166.127,117.190 164.556,115.950 161.373 C 114.106 156.638,112.701 151.852,111.982 147.849 C 111.537 145.367,111.015 144.798,111.387 147.200 M165.745 150.061 C 166.911 152.016,170.887 156.624,172.600 158.005 C 173.260 158.537,172.500 157.588,170.911 155.896 C 169.322 154.205,167.361 151.826,166.554 150.610 C 164.833 148.017,164.318 147.668,165.745 150.061 M174.471 159.722 C 176.165 161.395,185.400 166.733,185.839 166.294 C 185.926 166.207,184.333 165.303,182.298 164.284 C 180.264 163.266,177.651 161.705,176.492 160.816 C 174.423 159.230,173.427 158.691,174.471 159.722 M118.000 166.947 C 118.000 167.380,119.988 171.200,120.213 171.200 C 120.323 171.200,119.939 170.255,119.359 169.100 C 118.243 166.879,118.000 166.494,118.000 166.947 M188.800 167.600 C 189.130 167.813,189.670 167.988,190.000 167.988 C 190.533 167.988,190.533 167.945,190.000 167.600 C 189.670 167.387,189.130 167.212,188.800 167.212 C 188.267 167.212,188.267 167.255,188.800 167.600 M191.200 168.400 C 191.530 168.613,192.070 168.788,192.400 168.788 C 192.933 168.788,192.933 168.745,192.400 168.400 C 192.070 168.187,191.530 168.012,191.200 168.012 C 190.667 168.012,190.667 168.055,191.200 168.400 M193.600 169.200 C 193.930 169.413,194.470 169.588,194.800 169.588 C 195.333 169.588,195.333 169.545,194.800 169.200 C 194.470 168.987,193.930 168.812,193.600 168.812 C 193.067 168.812,193.067 168.855,193.600 169.200 M203.600 172.400 C 203.930 172.613,204.470 172.788,204.800 172.788 C 205.333 172.788,205.333 172.745,204.800 172.400 C 204.470 172.187,203.930 172.012,203.600 172.012 C 203.067 172.012,203.067 172.055,203.600 172.400 M206.200 173.200 C 206.336 173.420,206.842 173.587,207.324 173.572 C 208.169 173.545,208.171 173.531,207.400 173.200 C 206.299 172.727,205.908 172.727,206.200 173.200 M121.750 174.200 C 122.074 174.860,122.631 175.760,122.989 176.200 C 123.597 176.948,123.601 176.922,123.050 175.800 C 122.726 175.140,122.169 174.240,121.811 173.800 C 121.203 173.052,121.199 173.078,121.750 174.200 M208.600 174.000 C 208.736 174.220,209.242 174.387,209.724 174.372 C 210.569 174.345,210.571 174.331,209.800 174.000 C 208.699 173.527,208.308 173.527,208.600 174.000 M211.000 174.800 C 211.136 175.020,211.642 175.187,212.124 175.172 C 212.969 175.145,212.971 175.131,212.200 174.800 C 211.099 174.327,210.708 174.327,211.000 174.800 M215.600 176.146 C 215.600 176.373,219.436 177.604,220.075 177.582 C 220.364 177.573,219.907 177.318,219.059 177.016 C 217.093 176.315,215.600 175.939,215.600 176.146 M125.456 179.900 C 128.823 184.694,139.200 196.194,139.200 195.132 C 139.200 194.995,137.829 193.559,136.154 191.941 C 134.479 190.324,132.008 187.650,130.663 186.000 C 129.318 184.350,128.021 182.795,127.781 182.544 C 127.541 182.293,126.637 180.990,125.772 179.647 C 124.908 178.305,124.056 177.205,123.880 177.203 C 123.704 177.202,124.413 178.415,125.456 179.900 M221.000 178.000 C 221.136 178.220,221.642 178.387,222.124 178.372 C 222.969 178.345,222.971 178.331,222.200 178.000 C 221.099 177.527,220.708 177.527,221.000 178.000 M223.214 178.531 C 223.528 178.869,233.287 182.046,233.465 181.869 C 233.548 181.786,231.677 181.081,229.308 180.303 C 223.813 178.499,222.951 178.248,223.214 178.531 M236.200 182.977 C 239.164 184.115,240.672 184.576,240.371 184.254 C 240.064 183.925,234.710 181.993,234.202 182.028 C 233.981 182.043,234.880 182.470,236.200 182.977 M252.800 190.137 C 252.800 190.377,255.941 192.402,256.291 192.387 C 256.461 192.380,256.240 192.097,255.800 191.757 C 254.844 191.018,252.800 189.915,252.800 190.137 M258.786 193.888 C 262.672 196.693,264.929 198.436,267.100 200.310 C 268.475 201.497,269.600 202.354,269.600 202.215 C 269.600 201.641,260.514 194.462,258.705 193.605 C 257.894 193.221,257.902 193.251,258.786 193.888 M141.200 196.824 C 142.190 197.742,143.810 199.022,144.800 199.669 L 146.600 200.845 145.214 199.722 C 144.452 199.105,142.832 197.825,141.614 196.877 L 139.400 195.155 141.200 196.824 M147.164 201.342 C 147.475 201.724,148.758 202.640,150.016 203.378 C 151.274 204.115,152.775 205.027,153.352 205.405 C 153.928 205.783,154.400 206.002,154.400 205.893 C 154.400 205.784,153.185 204.927,151.700 203.989 C 150.215 203.052,148.460 201.916,147.800 201.466 C 146.853 200.820,146.719 200.794,147.164 201.342 M270.000 202.432 C 270.000 202.783,276.041 208.893,276.215 208.718 C 276.304 208.630,274.941 207.131,273.188 205.388 C 271.435 203.645,270.000 202.315,270.000 202.432 M155.200 206.386 C 156.357 207.248,160.400 209.208,160.396 208.906 C 160.394 208.738,159.269 208.060,157.896 207.401 C 154.978 205.999,154.376 205.772,155.200 206.386 M277.755 210.919 C 278.603 211.953,279.380 212.800,279.482 212.800 C 279.755 212.800,277.221 209.660,276.677 209.324 C 276.422 209.166,276.907 209.884,277.755 210.919 M281.835 216.200 C 284.403 219.851,287.323 224.737,288.948 228.100 C 289.559 229.365,290.131 230.400,290.220 230.400 C 290.522 230.400,289.551 228.201,288.099 225.600 C 287.302 224.170,286.456 222.640,286.220 222.200 C 285.314 220.513,282.012 215.738,280.826 214.400 C 280.143 213.630,280.597 214.440,281.835 216.200 M173.200 214.400 C 173.530 214.613,174.070 214.788,174.400 214.788 C 174.933 214.788,174.933 214.745,174.400 214.400 C 174.070 214.187,173.530 214.012,173.200 214.012 C 172.667 214.012,172.667 214.055,173.200 214.400 M175.600 215.200 C 175.930 215.413,176.470 215.588,176.800 215.588 C 177.333 215.588,177.333 215.545,176.800 215.200 C 176.470 214.987,175.930 214.812,175.600 214.812 C 175.067 214.812,175.067 214.855,175.600 215.200 M177.600 215.772 C 177.600 215.970,181.755 217.215,182.262 217.169 C 182.700 217.129,178.758 215.672,178.100 215.631 C 177.825 215.614,177.600 215.677,177.600 215.772 M182.800 217.364 C 182.800 217.455,184.375 218.013,186.300 218.604 C 188.225 219.195,191.128 220.118,192.752 220.654 C 194.376 221.191,195.796 221.537,195.909 221.424 C 196.022 221.311,195.864 221.144,195.557 221.052 C 193.393 220.406,186.291 218.212,184.886 217.756 C 183.039 217.157,182.800 217.112,182.800 217.364 M198.565 222.427 C 199.866 222.854,200.997 223.136,201.080 223.053 C 201.275 222.858,197.414 221.592,196.725 221.625 C 196.436 221.639,197.264 222.000,198.565 222.427 M202.200 223.600 C 203.301 224.073,203.692 224.073,203.400 223.600 C 203.264 223.380,202.758 223.213,202.276 223.228 C 201.431 223.255,201.429 223.269,202.200 223.600 M204.600 224.400 C 205.701 224.873,206.092 224.873,205.800 224.400 C 205.664 224.180,205.158 224.013,204.676 224.028 C 203.831 224.055,203.829 224.069,204.600 224.400 M209.800 226.000 C 210.901 226.473,211.292 226.473,211.000 226.000 C 210.864 225.780,210.358 225.613,209.876 225.628 C 209.031 225.655,209.029 225.669,209.800 226.000 M217.400 228.400 C 218.501 228.873,218.892 228.873,218.600 228.400 C 218.464 228.180,217.958 228.013,217.476 228.028 C 216.631 228.055,216.629 228.069,217.400 228.400 M227.200 232.160 C 227.200 232.273,228.055 232.857,229.100 233.457 C 231.878 235.051,233.837 236.584,237.159 239.766 C 239.315 241.831,239.804 242.176,238.962 241.035 C 237.111 238.528,227.200 231.050,227.200 232.160 M294.434 241.400 C 294.422 241.840,294.587 242.470,294.800 242.800 C 295.314 243.595,295.314 242.596,294.800 241.400 L 294.456 240.600 294.434 241.400 M240.414 243.038 C 240.435 243.550,242.396 245.886,242.398 245.400 C 242.398 245.180,241.949 244.477,241.400 243.838 C 240.850 243.199,240.406 242.839,240.414 243.038 M295.212 244.400 C 295.212 244.730,295.387 245.270,295.600 245.600 C 295.945 246.133,295.988 246.133,295.988 245.600 C 295.988 245.270,295.813 244.730,295.600 244.400 C 295.255 243.867,295.212 243.867,295.212 244.400 M243.647 248.014 C 245.381 250.833,247.381 255.719,248.229 259.206 C 248.624 260.830,249.018 261.947,249.104 261.688 C 249.637 260.090,243.916 246.000,242.736 246.000 C 242.555 246.000,242.965 246.906,243.647 248.014 M296.034 247.400 C 296.022 247.840,296.187 248.470,296.400 248.800 C 296.914 249.595,296.914 248.596,296.400 247.400 L 296.056 246.600 296.034 247.400 M296.868 251.200 C 296.862 251.750,297.011 252.560,297.200 253.000 L 297.544 253.800 297.532 253.000 C 297.526 252.560,297.376 251.750,297.200 251.200 L 296.880 250.200 296.868 251.200 M297.670 255.600 C 297.657 256.150,297.795 257.320,297.977 258.200 L 298.308 259.800 298.307 258.400 C 298.305 256.635,297.709 254.012,297.670 255.600 M298.598 271.400 C 298.599 276.900,298.722 280.590,298.870 279.600 C 299.217 277.291,299.212 266.014,298.863 263.400 C 298.716 262.300,298.597 265.900,298.598 271.400 M249.276 263.400 C 249.267 264.060,249.403 265.410,249.580 266.400 C 249.878 268.078,249.902 268.105,249.927 266.800 C 249.942 266.030,249.805 264.680,249.623 263.800 C 249.337 262.420,249.290 262.365,249.276 263.400 M101.372 265.728 C 101.261 266.019,101.229 268.044,101.301 270.228 L 101.433 274.200 101.516 269.900 L 101.600 265.600 125.800 265.600 L 150.000 265.600 150.047 269.500 C 150.072 271.645,150.234 274.570,150.405 276.000 C 150.598 277.605,150.637 276.151,150.509 272.200 C 150.394 268.680,150.222 265.665,150.127 265.500 C 149.787 264.914,101.598 265.140,101.372 265.728 M250.120 272.000 C 250.120 273.210,250.195 273.705,250.287 273.100 C 250.378 272.495,250.378 271.505,250.287 270.900 C 250.195 270.295,250.120 270.790,250.120 272.000 M249.387 278.987 C 249.231 280.444,249.193 281.726,249.303 281.836 C 249.413 281.946,249.631 280.844,249.787 279.387 C 249.943 277.929,249.980 276.647,249.870 276.537 C 249.760 276.427,249.543 277.529,249.387 278.987 M101.669 279.600 C 101.656 280.370,101.795 281.720,101.977 282.600 L 102.308 284.200 102.331 282.800 C 102.344 282.030,102.205 280.680,102.023 279.800 L 101.692 278.200 101.669 279.600 M150.880 280.000 C 150.880 280.550,151.024 281.450,151.200 282.000 L 151.520 283.000 151.520 282.000 C 151.520 281.450,151.376 280.550,151.200 280.000 L 150.880 279.000 150.880 280.000 M248.599 283.700 C 247.396 289.621,244.242 295.516,239.501 300.705 C 237.532 302.860,237.422 303.039,238.951 301.600 C 243.685 297.144,247.928 289.646,248.965 283.900 C 249.297 282.065,248.968 281.885,248.599 283.700 M151.847 284.384 C 152.227 286.457,155.154 293.180,155.682 293.193 C 155.838 293.197,155.418 292.133,154.751 290.828 C 154.083 289.524,153.099 287.229,152.565 285.728 C 152.030 284.228,151.707 283.623,151.847 284.384 M297.800 285.200 C 297.645 286.328,297.608 287.341,297.718 287.451 C 297.828 287.561,298.045 286.728,298.200 285.600 C 298.355 284.472,298.392 283.459,298.282 283.349 C 298.172 283.239,297.955 284.072,297.800 285.200 M102.468 286.400 C 102.487 288.050,103.117 289.756,103.132 288.200 C 103.138 287.540,102.989 286.640,102.800 286.200 C 102.487 285.473,102.457 285.491,102.468 286.400 M297.000 290.000 C 296.848 290.691,296.814 291.347,296.924 291.457 C 297.034 291.567,297.248 291.091,297.400 290.400 C 297.552 289.709,297.586 289.053,297.476 288.943 C 297.366 288.833,297.152 289.309,297.000 290.000 M103.234 290.800 C 103.246 291.130,103.411 291.760,103.600 292.200 L 103.944 293.000 103.966 292.200 C 103.978 291.760,103.813 291.130,103.600 290.800 C 103.255 290.267,103.215 290.267,103.234 290.800 M296.273 293.353 C 296.123 293.745,296.011 294.366,296.025 294.733 C 296.042 295.175,296.181 295.074,296.437 294.434 C 296.649 293.903,296.761 293.282,296.685 293.054 C 296.609 292.827,296.424 292.961,296.273 293.353 M156.022 293.800 C 156.027 294.329,157.142 295.791,157.369 295.565 C 157.466 295.468,157.202 294.941,156.782 294.394 C 156.361 293.847,156.020 293.580,156.022 293.800 M104.034 294.400 C 104.046 294.730,104.211 295.360,104.400 295.800 L 104.744 296.600 104.766 295.800 C 104.778 295.360,104.613 294.730,104.400 294.400 C 104.055 293.867,104.015 293.867,104.034 294.400 M158.304 297.000 C 158.763 297.660,160.182 299.190,161.459 300.400 C 163.670 302.496,163.648 302.458,161.012 299.600 C 157.316 295.594,157.351 295.628,158.304 297.000 M295.400 296.800 C 295.250 297.273,295.217 297.750,295.327 297.860 C 295.437 297.970,295.650 297.673,295.800 297.200 C 295.950 296.727,295.983 296.250,295.873 296.140 C 295.763 296.030,295.550 296.327,295.400 296.800 M104.828 297.476 C 104.918 298.515,105.544 299.396,105.572 298.524 C 105.587 298.042,105.420 297.536,105.200 297.400 C 104.980 297.264,104.813 297.298,104.828 297.476 M105.612 300.000 C 105.612 300.330,105.787 300.870,106.000 301.200 C 106.345 301.733,106.388 301.733,106.388 301.200 C 106.388 300.870,106.213 300.330,106.000 300.000 C 105.655 299.467,105.612 299.467,105.612 300.000 M164.005 302.673 C 164.008 302.853,164.657 303.419,165.448 303.932 C 166.240 304.445,166.772 304.678,166.631 304.451 C 166.241 303.818,163.999 302.301,164.005 302.673 M233.919 305.119 C 232.445 306.138,231.306 307.039,231.388 307.122 C 231.577 307.311,236.263 304.145,236.599 303.602 C 236.952 303.031,236.890 303.065,233.919 305.119 M168.000 305.564 C 168.550 306.014,169.180 306.383,169.400 306.385 C 169.828 306.388,169.105 305.834,167.800 305.160 C 167.269 304.885,167.336 305.021,168.000 305.564 M177.000 310.000 C 177.136 310.220,177.642 310.387,178.124 310.372 C 178.969 310.345,178.971 310.331,178.200 310.000 C 177.099 309.527,176.708 309.527,177.000 310.000 M223.000 310.418 C 221.900 310.830,221.270 311.172,221.600 311.177 C 222.320 311.190,225.073 310.261,225.459 309.874 C 225.886 309.447,225.173 309.605,223.000 310.418 M110.178 311.408 C 110.701 312.661,112.300 315.198,111.938 314.200 C 111.524 313.064,109.954 310.000,109.785 310.000 C 109.677 310.000,109.854 310.634,110.178 311.408 M179.390 310.784 C 179.532 311.013,180.117 311.200,180.690 311.200 C 181.944 311.200,181.799 311.008,180.266 310.640 C 179.523 310.462,179.221 310.511,179.390 310.784 M289.429 312.061 C 289.083 312.755,288.800 313.425,288.800 313.550 C 288.800 313.897,289.833 312.294,290.121 311.500 C 290.536 310.355,290.106 310.704,289.429 312.061 M182.400 311.545 C 183.322 312.053,188.611 312.934,189.241 312.685 C 189.548 312.563,189.260 312.448,188.600 312.429 C 187.940 312.411,186.770 312.235,186.000 312.038 C 183.706 311.451,181.743 311.182,182.400 311.545 M218.600 311.648 C 214.397 312.978,198.061 313.801,191.543 313.012 C 189.984 312.823,189.927 312.843,191.000 313.202 C 192.619 313.742,209.823 313.740,212.924 313.199 C 217.176 312.457,219.777 311.883,220.400 311.547 C 221.261 311.084,220.196 311.143,218.600 311.648 M287.342 315.900 C 286.741 316.945,285.432 318.961,284.432 320.381 C 283.432 321.801,282.837 322.824,283.109 322.656 C 283.959 322.131,289.149 314.000,288.634 314.000 C 288.524 314.000,287.942 314.855,287.342 315.900 M113.059 316.700 C 114.694 319.544,117.133 323.112,117.668 323.442 C 117.928 323.603,117.235 322.399,116.128 320.767 C 115.022 319.135,113.715 317.125,113.225 316.300 C 112.736 315.475,112.252 314.800,112.151 314.800 C 112.049 314.800,112.458 315.655,113.059 316.700 M281.944 323.900 C 280.675 325.432,280.219 326.142,280.681 325.865 C 281.193 325.558,282.969 323.200,282.689 323.200 C 282.598 323.200,282.263 323.515,281.944 323.900 M118.731 325.100 C 122.135 329.866,136.000 342.562,136.000 340.913 C 136.000 340.726,135.441 340.243,134.759 339.839 C 131.145 337.705,121.080 328.119,119.282 325.100 C 118.922 324.495,118.474 324.000,118.287 324.000 C 118.099 324.000,118.299 324.495,118.731 325.100 M278.912 327.532 C 276.750 330.270,268.846 337.663,266.940 338.730 C 266.537 338.955,266.311 339.245,266.439 339.373 C 266.635 339.569,268.802 337.843,273.933 333.407 C 275.456 332.090,280.493 326.400,280.132 326.404 C 279.950 326.406,279.400 326.914,278.912 327.532 M262.692 341.765 C 259.196 344.147,258.192 345.020,260.600 343.585 C 263.388 341.924,266.733 339.424,265.900 339.624 C 265.845 339.637,264.401 340.601,262.692 341.765 M136.669 341.632 C 137.166 342.233,139.600 343.764,139.600 343.476 C 139.600 343.383,138.835 342.802,137.900 342.185 C 136.965 341.568,136.411 341.320,136.669 341.632 M140.000 343.790 C 140.000 343.894,140.585 344.265,141.300 344.614 L 142.600 345.248 141.600 344.433 C 140.637 343.648,140.000 343.392,140.000 343.790 M257.500 345.029 C 256.005 345.840,256.096 346.178,257.600 345.400 C 258.260 345.059,258.800 344.694,258.800 344.590 C 258.800 344.332,258.757 344.347,257.500 345.029 M142.800 345.399 C 142.800 345.665,150.049 349.285,150.226 349.107 C 150.304 349.029,148.666 348.119,146.584 347.085 C 144.503 346.051,142.800 345.292,142.800 345.399 M252.000 348.000 C 250.790 348.639,249.941 349.171,250.113 349.181 C 250.538 349.207,254.400 347.236,254.400 346.993 C 254.400 346.726,254.455 346.703,252.000 348.000 M151.020 349.533 C 151.526 349.976,155.587 351.603,156.153 351.589 C 156.564 351.579,151.265 349.200,150.832 349.200 C 150.726 349.200,150.811 349.350,151.020 349.533 M244.600 351.084 C 238.772 353.461,238.319 353.669,239.600 353.374 C 241.016 353.048,248.923 349.948,249.380 349.539 C 250.053 348.939,249.126 349.238,244.600 351.084 M158.000 352.282 C 159.419 352.908,167.091 355.200,167.766 355.200 C 168.695 355.200,167.462 354.724,164.564 353.965 C 162.824 353.510,160.416 352.791,159.214 352.368 C 156.625 351.459,156.036 351.417,158.000 352.282 M235.800 354.093 C 233.422 354.900,232.952 355.164,234.320 354.924 C 236.096 354.612,238.804 353.629,237.800 353.660 C 237.360 353.674,236.460 353.868,235.800 354.093 M168.433 355.347 C 168.525 355.428,169.320 355.604,170.200 355.738 C 171.315 355.907,171.558 355.871,171.000 355.619 C 170.232 355.271,168.090 355.044,168.433 355.347 M230.400 355.606 C 229.978 355.882,230.215 355.923,231.200 355.742 C 232.925 355.425,233.251 355.198,231.967 355.206 C 231.435 355.209,230.730 355.389,230.400 355.606 M173.000 356.400 C 173.660 356.568,174.560 356.714,175.000 356.725 L 175.800 356.744 175.000 356.400 C 174.560 356.211,173.660 356.065,173.000 356.075 L 171.800 356.095 173.000 356.400 M226.400 356.412 C 225.981 356.691,226.342 356.733,227.600 356.550 C 229.841 356.225,230.160 355.998,228.367 356.006 C 227.615 356.009,226.730 356.192,226.400 356.412 M176.033 356.946 C 176.125 357.026,177.190 357.200,178.400 357.332 C 179.837 357.488,180.322 357.448,179.800 357.214 C 179.043 356.875,175.679 356.636,176.033 356.946 M221.800 357.220 C 221.261 357.465,221.654 357.505,223.000 357.341 C 224.100 357.207,225.075 357.031,225.167 356.949 C 225.517 356.636,222.561 356.874,221.800 357.220 M181.233 357.748 C 181.325 357.829,182.750 357.999,184.400 358.125 C 186.246 358.266,187.015 358.225,186.400 358.017 C 185.426 357.689,180.901 357.453,181.233 357.748 M215.000 358.000 L 213.800 358.305 215.000 358.318 C 215.660 358.324,217.100 358.190,218.200 358.018 L 220.200 357.707 218.200 357.701 C 217.100 357.697,215.660 357.832,215.000 358.000 M195.507 358.843 C 199.085 359.021,204.305 359.020,207.107 358.841 C 211.434 358.565,210.455 358.516,200.600 358.518 C 189.586 358.520,189.329 358.536,195.507 358.843 " stroke="none" fill="#acdafa" fill-rule="evenodd"></path><path id="path4" d="M201.315 41.096 C 202.588 41.176,204.568 41.175,205.715 41.094 C 206.862 41.014,205.820 40.949,203.400 40.950 C 200.980 40.951,200.042 41.016,201.315 41.096 M188.000 41.603 C 187.590 41.870,188.035 41.914,189.400 41.741 C 190.500 41.601,191.475 41.423,191.567 41.344 C 191.964 41.001,188.541 41.250,188.000 41.603 M214.033 41.344 C 214.125 41.423,215.190 41.599,216.400 41.734 C 217.870 41.898,218.401 41.852,218.000 41.596 C 217.456 41.248,213.642 41.006,214.033 41.344 M182.200 42.400 C 181.908 42.873,182.299 42.873,183.400 42.400 C 184.171 42.069,184.169 42.055,183.324 42.028 C 182.842 42.013,182.336 42.180,182.200 42.400 M221.233 42.144 C 221.325 42.223,221.940 42.408,222.600 42.556 C 223.476 42.752,223.638 42.715,223.200 42.418 C 222.660 42.053,220.832 41.798,221.233 42.144 M177.800 43.200 C 177.508 43.673,177.899 43.673,179.000 43.200 C 179.771 42.869,179.769 42.855,178.924 42.828 C 178.442 42.813,177.936 42.980,177.800 43.200 M266.834 61.900 C 266.852 62.065,267.617 62.822,268.534 63.582 L 270.200 64.963 268.619 63.282 C 266.993 61.552,266.776 61.384,266.834 61.900 M136.370 63.100 L 135.400 64.200 136.600 63.200 C 137.260 62.650,137.875 62.155,137.967 62.100 C 138.058 62.045,137.955 62.000,137.736 62.000 C 137.518 62.000,136.903 62.495,136.370 63.100 M132.185 66.900 L 130.200 69.000 132.300 67.015 C 133.455 65.923,134.400 64.978,134.400 64.915 C 134.400 64.617,134.029 64.949,132.185 66.900 M275.000 70.000 C 275.859 70.880,276.652 71.600,276.762 71.600 C 276.872 71.600,276.259 70.880,275.400 70.000 C 274.541 69.120,273.748 68.400,273.638 68.400 C 273.528 68.400,274.141 69.120,275.000 70.000 M128.175 71.300 L 127.000 72.600 128.300 71.425 C 129.512 70.330,129.784 70.000,129.475 70.000 C 129.406 70.000,128.821 70.585,128.175 71.300 M283.549 81.400 C 283.765 81.840,284.234 82.560,284.593 83.000 L 285.244 83.800 284.851 83.000 C 284.635 82.560,284.166 81.840,283.807 81.400 L 283.156 80.600 283.549 81.400 M202.600 87.214 C 204.184 87.550,208.288 87.735,207.967 87.455 C 207.875 87.375,206.270 87.212,204.400 87.092 C 202.027 86.940,201.483 86.977,202.600 87.214 M197.100 87.489 C 197.815 87.578,198.985 87.578,199.700 87.489 C 200.415 87.401,199.830 87.328,198.400 87.328 C 196.970 87.328,196.385 87.401,197.100 87.489 M212.600 88.000 C 213.040 88.189,213.670 88.344,214.000 88.344 C 214.378 88.344,214.304 88.217,213.800 88.000 C 213.360 87.811,212.730 87.656,212.400 87.656 C 212.022 87.656,212.096 87.783,212.600 88.000 M115.179 92.255 C 114.958 92.836,114.852 93.385,114.943 93.476 C 115.033 93.567,115.299 93.092,115.533 92.420 C 116.053 90.928,115.739 90.782,115.179 92.255 M235.434 98.768 C 236.992 100.435,238.463 102.159,238.704 102.597 C 238.944 103.035,239.255 103.278,239.397 103.137 C 239.538 102.996,238.066 101.273,236.127 99.308 C 233.455 96.602,233.287 96.471,235.434 98.768 M168.153 98.500 C 165.432 101.306,164.000 103.106,164.000 103.723 C 164.000 103.951,164.537 103.327,165.193 102.336 C 165.849 101.346,167.456 99.515,168.763 98.268 C 170.071 97.020,171.014 96.000,170.859 96.000 C 170.704 96.000,169.486 97.125,168.153 98.500 M293.228 105.876 C 293.318 106.915,293.944 107.796,293.972 106.924 C 293.987 106.442,293.820 105.936,293.600 105.800 C 293.380 105.664,293.213 105.698,293.228 105.876 M110.249 109.815 C 110.112 110.173,110.015 110.766,110.034 111.133 C 110.053 111.500,110.227 111.269,110.421 110.620 C 110.798 109.358,110.665 108.733,110.249 109.815 M294.258 110.800 C 294.575 112.525,294.802 112.851,294.794 111.567 C 294.791 111.035,294.611 110.330,294.394 110.000 C 294.118 109.578,294.077 109.815,294.258 110.800 M109.449 115.015 C 109.312 115.373,109.221 116.326,109.247 117.133 C 109.290 118.483,109.320 118.442,109.626 116.613 C 109.968 114.570,109.890 113.867,109.449 115.015 M295.066 116.800 C 295.201 118.010,295.377 119.075,295.456 119.167 C 295.794 119.558,295.552 115.744,295.204 115.200 C 294.948 114.799,294.902 115.330,295.066 116.800 M158.985 118.985 C 158.830 120.223,158.793 121.327,158.903 121.437 C 159.013 121.547,159.230 120.623,159.385 119.385 C 159.539 118.146,159.576 117.043,159.466 116.933 C 159.356 116.823,159.139 117.746,158.985 118.985 M295.685 128.897 L 295.600 133.594 270.900 133.700 L 246.200 133.806 270.913 133.903 C 291.027 133.982,295.663 133.902,295.827 133.474 C 295.938 133.185,295.970 130.980,295.899 128.574 L 295.770 124.200 295.685 128.897 M158.863 127.000 C 158.854 127.440,158.995 128.520,159.177 129.400 L 159.508 131.000 159.514 129.600 C 159.517 128.830,159.376 127.750,159.200 127.200 C 158.941 126.391,158.877 126.353,158.863 127.000 M159.844 134.200 C 160.173 135.671,160.402 135.990,160.394 134.967 C 160.391 134.545,160.205 133.930,159.982 133.600 C 159.685 133.162,159.648 133.324,159.844 134.200 M109.206 136.633 C 109.209 137.275,109.396 138.070,109.621 138.400 C 109.914 138.830,109.954 138.546,109.762 137.400 C 109.430 135.416,109.198 135.096,109.206 136.633 M110.034 143.000 C 110.022 143.440,110.187 144.070,110.400 144.400 C 110.914 145.195,110.914 144.196,110.400 143.000 L 110.056 142.200 110.034 143.000 M165.549 148.600 C 165.765 149.040,166.234 149.760,166.593 150.200 L 167.244 151.000 166.851 150.200 C 166.635 149.760,166.166 149.040,165.807 148.600 L 165.156 147.800 165.549 148.600 M111.612 150.800 C 111.612 151.130,111.787 151.670,112.000 152.000 C 112.345 152.533,112.388 152.533,112.388 152.000 C 112.388 151.670,112.213 151.130,112.000 150.800 C 111.655 150.267,111.612 150.267,111.612 150.800 M167.991 152.388 C 168.457 153.041,169.042 153.702,169.291 153.856 C 169.541 154.011,169.241 153.476,168.625 152.668 C 167.288 150.915,166.784 150.692,167.991 152.388 M181.200 163.398 C 181.200 163.667,185.249 165.684,185.429 165.505 C 185.511 165.423,184.593 164.873,183.389 164.282 C 182.185 163.692,181.200 163.294,181.200 163.398 M118.400 168.953 C 118.400 169.382,119.590 171.600,119.821 171.600 C 119.931 171.600,119.723 171.015,119.359 170.300 C 118.617 168.840,118.400 168.536,118.400 168.953 M134.400 191.400 C 136.260 193.270,137.872 194.800,137.982 194.800 C 138.092 194.800,136.660 193.270,134.800 191.400 C 132.940 189.530,131.328 188.000,131.218 188.000 C 131.108 188.000,132.540 189.530,134.400 191.400 M142.046 198.327 C 144.959 200.545,146.000 201.274,146.000 201.096 C 146.000 200.832,141.713 197.600,141.363 197.600 C 141.214 197.600,141.521 197.927,142.046 198.327 M269.000 201.200 C 269.859 202.080,270.652 202.800,270.762 202.800 C 270.872 202.800,270.259 202.080,269.400 201.200 C 268.541 200.320,267.748 199.600,267.638 199.600 C 267.528 199.600,268.141 200.320,269.000 201.200 M272.401 204.196 C 273.170 205.073,273.845 205.868,273.900 205.962 C 273.955 206.056,274.087 206.047,274.193 205.941 C 274.299 205.835,273.624 205.040,272.693 204.174 L 271.001 202.600 272.401 204.196 M177.600 216.341 C 177.930 216.534,178.740 216.809,179.400 216.952 C 180.168 217.118,180.384 217.084,180.000 216.859 C 179.670 216.666,178.860 216.391,178.200 216.248 C 177.432 216.082,177.216 216.116,177.600 216.341 M227.363 232.886 C 231.089 235.396,233.245 236.660,232.075 235.647 C 231.346 235.016,229.816 234.021,228.675 233.436 C 227.534 232.851,226.943 232.603,227.363 232.886 M236.812 239.798 C 237.750 241.072,238.400 241.686,238.400 241.298 C 238.400 241.101,237.910 240.503,237.312 239.970 C 236.514 239.258,236.381 239.213,236.812 239.798 M297.693 252.400 C 297.693 253.170,297.775 253.485,297.876 253.100 C 297.976 252.715,297.976 252.085,297.876 251.700 C 297.775 251.315,297.693 251.630,297.693 252.400 M298.514 257.400 C 298.517 258.500,298.595 258.903,298.687 258.295 C 298.779 257.686,298.777 256.786,298.682 256.295 C 298.587 255.803,298.511 256.300,298.514 257.400 M299.370 271.400 C 299.371 276.240,299.429 278.165,299.499 275.678 C 299.569 273.191,299.569 269.231,299.498 266.878 C 299.428 264.525,299.370 266.560,299.370 271.400 M248.909 264.800 C 248.909 265.790,248.987 266.195,249.082 265.700 C 249.178 265.205,249.178 264.395,249.082 263.900 C 248.987 263.405,248.909 263.810,248.909 264.800 M100.531 268.200 C 100.533 269.740,100.605 270.321,100.692 269.491 C 100.779 268.661,100.777 267.401,100.689 266.691 C 100.600 265.981,100.529 266.660,100.531 268.200 M150.960 271.800 C 150.961 275.100,151.022 276.397,151.098 274.682 C 151.173 272.967,151.172 270.267,151.097 268.682 C 151.021 267.097,150.959 268.500,150.960 271.800 M249.314 269.400 C 249.317 270.500,249.395 270.903,249.487 270.295 C 249.579 269.686,249.577 268.786,249.482 268.295 C 249.387 267.803,249.311 268.300,249.314 269.400 M100.920 274.400 C 100.920 275.610,100.995 276.105,101.087 275.500 C 101.178 274.895,101.178 273.905,101.087 273.300 C 100.995 272.695,100.920 273.190,100.920 274.400 M249.320 275.200 C 249.320 276.410,249.395 276.905,249.487 276.300 C 249.578 275.695,249.578 274.705,249.487 274.100 C 249.395 273.495,249.320 273.990,249.320 275.200 M248.909 279.600 C 248.909 280.590,248.987 280.995,249.082 280.500 C 249.178 280.005,249.178 279.195,249.082 278.700 C 248.987 278.205,248.909 278.610,248.909 279.600 M101.324 281.000 C 101.326 282.320,101.401 282.812,101.490 282.093 C 101.579 281.374,101.577 280.294,101.486 279.693 C 101.395 279.092,101.322 279.680,101.324 281.000 M151.606 281.233 C 151.609 281.765,151.789 282.470,152.006 282.800 C 152.282 283.222,152.323 282.985,152.142 282.000 C 151.825 280.275,151.598 279.949,151.606 281.233 M298.509 285.200 C 298.509 286.190,298.587 286.595,298.682 286.100 C 298.778 285.605,298.778 284.795,298.682 284.300 C 298.587 283.805,298.509 284.210,298.509 285.200 M102.093 287.200 C 102.093 287.970,102.175 288.285,102.276 287.900 C 102.376 287.515,102.376 286.885,102.276 286.500 C 102.175 286.115,102.093 286.430,102.093 287.200 M102.806 291.433 C 102.809 291.855,102.995 292.470,103.218 292.800 C 103.515 293.238,103.552 293.076,103.356 292.200 C 103.027 290.729,102.798 290.410,102.806 291.433 M296.846 293.667 C 296.821 294.034,296.696 294.664,296.570 295.067 C 296.352 295.762,296.363 295.763,296.797 295.087 C 297.048 294.696,297.173 294.066,297.073 293.687 C 296.911 293.068,296.888 293.066,296.846 293.667 M238.786 300.700 L 236.600 303.000 238.900 300.814 C 241.037 298.782,241.383 298.400,241.086 298.400 C 241.024 298.400,239.989 299.435,238.786 300.700 M162.200 300.364 C 163.036 301.329,166.000 303.783,166.000 303.510 C 166.000 303.423,164.965 302.472,163.700 301.397 C 162.435 300.321,161.760 299.856,162.200 300.364 M187.400 312.000 C 187.840 312.189,188.470 312.344,188.800 312.344 C 189.178 312.344,189.104 312.217,188.600 312.000 C 188.160 311.811,187.530 311.656,187.200 311.656 C 186.822 311.656,186.896 311.783,187.400 312.000 M215.000 312.000 C 214.496 312.217,214.422 312.344,214.800 312.344 C 215.130 312.344,215.760 312.189,216.200 312.000 C 216.704 311.783,216.778 311.656,216.400 311.656 C 216.070 311.656,215.440 311.811,215.000 312.000 M193.000 312.822 C 194.578 313.149,199.490 313.336,199.167 313.056 C 199.075 312.976,197.290 312.817,195.200 312.700 C 192.677 312.560,191.938 312.601,193.000 312.822 M206.800 312.800 L 204.200 313.062 206.400 313.108 C 207.610 313.133,209.320 313.005,210.200 312.823 C 212.184 312.413,210.742 312.403,206.800 312.800 M282.159 324.500 C 280.407 326.521,279.887 327.200,280.090 327.200 C 280.207 327.200,280.967 326.390,281.779 325.400 C 283.281 323.566,283.579 322.863,282.159 324.500 M278.181 329.300 L 276.600 331.000 278.300 329.419 C 279.881 327.948,280.184 327.600,279.881 327.600 C 279.816 327.600,279.051 328.365,278.181 329.300 M121.600 329.310 C 121.600 329.371,122.995 330.766,124.700 332.410 L 127.800 335.400 124.810 332.300 C 122.033 329.421,121.600 329.017,121.600 329.310 M271.600 335.681 C 269.786 337.400,269.391 337.882,270.600 336.899 C 272.518 335.341,275.140 332.779,274.775 332.819 C 274.679 332.830,273.250 334.118,271.600 335.681 M144.000 346.598 C 144.000 346.865,149.649 349.685,149.827 349.506 C 149.907 349.427,148.628 348.697,146.986 347.884 C 145.344 347.071,144.000 346.493,144.000 346.598 M151.254 350.187 C 151.590 350.523,154.400 351.616,154.400 351.411 C 154.400 351.301,153.748 350.938,152.951 350.605 C 151.475 349.989,150.918 349.851,151.254 350.187 M172.600 356.800 C 172.736 357.020,173.242 357.187,173.724 357.172 C 174.569 357.145,174.571 357.131,173.800 356.800 C 172.699 356.327,172.308 356.327,172.600 356.800 M227.400 356.800 C 226.629 357.131,226.631 357.145,227.476 357.172 C 227.958 357.187,228.464 357.020,228.600 356.800 C 228.892 356.327,228.501 356.327,227.400 356.800 M177.200 357.582 C 177.530 357.805,178.145 357.991,178.567 357.994 C 179.590 358.002,179.271 357.773,177.800 357.444 C 176.924 357.248,176.762 357.285,177.200 357.582 M223.200 357.600 C 222.376 357.864,222.341 357.926,223.000 357.954 C 223.440 357.973,224.070 357.813,224.400 357.600 C 225.101 357.147,224.614 357.147,223.200 357.600 M182.600 358.400 C 183.040 358.589,183.940 358.735,184.600 358.725 L 185.800 358.705 184.600 358.400 C 183.940 358.232,183.040 358.086,182.600 358.075 L 181.800 358.056 182.600 358.400 M217.200 358.400 C 215.816 358.691,215.814 358.695,217.000 358.741 C 217.660 358.767,218.470 358.613,218.800 358.400 C 219.466 357.970,219.245 357.970,217.200 358.400 M191.418 359.253 C 193.022 359.596,209.628 359.612,210.482 359.272 C 210.857 359.122,206.455 359.000,200.700 359.000 C 194.945 359.000,190.768 359.114,191.418 359.253 " stroke="none" fill="#50b4f4" fill-rule="evenodd"></path></g></svg>